<?xml version="1.0" encoding="utf-8"?>
<!-- Generator: Adobe Illustrator 18.0.0, SVG Export Plug-In . SVG Version: 6.00 Build 0)  -->
<!DOCTYPE svg PUBLIC "-//W3C//DTD SVG 1.1//EN" "http://www.w3.org/Graphics/SVG/1.1/DTD/svg11.dtd">
<svg version="1.1" id="ecommerce_1_" xmlns="http://www.w3.org/2000/svg" xmlns:xlink="http://www.w3.org/1999/xlink" x="0px"
	 y="0px" viewBox="0 0 115 115" style="enable-background:new 0 0 115 115;" xml:space="preserve">
<style type="text/css">
	.st0{fill:#FFEEAD;}
	.st1{fill:#C9B77D;}
	.st2{fill:#99734A;}
	.st3{fill:#FF6F69;}
	.st4{fill:#96CEB4;}
	.st5{fill:none;}
	.st6{fill:#AA9865;}
	.st7{fill:#71A58A;}
	.st8{fill:#FFCC5C;}
	.st9{fill:#825E3B;}
	.st10{fill:#639376;}
	.st11{fill:#E05858;}
	.st12{fill:#C1821E;}
	.st13{fill:#D6A041;}
	.st14{fill:#B28559;}
	.st15{fill:#BF4343;}
	.st16{fill:#D3C089;}
	.st17{fill:#7C5C3C;}
	.st18{fill:#FDCC5C;}
	.st19{fill:#FFFFFF;}
</style>
<g id="digital_currency_payment_1_">
	<g>
		<g>
			<g>
				<g>
					<circle class="st13" cx="56.828" cy="62.471" r="35.854"/>
				</g>
			</g>
			<g>
				<g>
					<circle class="st8" cx="56.828" cy="57.22" r="35.854"/>
				</g>
			</g>
		</g>
	</g>
	<g>
		<g>
			<g>
				<polygon class="st8" points="60.819,2.318 60.819,32.77 61.952,32.77 61.952,3.451 81.21,3.451 81.21,2.318 				"/>
			</g>
		</g>
		<g>
			<g>
				<circle class="st8" cx="81.062" cy="2.811" r="2.811"/>
			</g>
		</g>
		<g>
			<g>
				<circle class="st8" cx="24.585" cy="8.655" r="2.811"/>
			</g>
		</g>
		<g>
			<g>
				<circle class="st8" cx="28.21" cy="30.107" r="2.811"/>
			</g>
		</g>
		<g>
			<g>
				<circle class="st8" cx="94.229" cy="23.893" r="2.811"/>
			</g>
		</g>
		<g>
			<g>
				<circle class="st8" cx="92.75" cy="9.099" r="2.811"/>
			</g>
		</g>
		<g>
			<g>
				<circle class="st8" cx="106.805" cy="66.502" r="2.811"/>
			</g>
		</g>
		<g>
			<g>
				<circle class="st8" cx="103.402" cy="89.433" r="2.811"/>
			</g>
		</g>
		<g>
			<g>
				<circle class="st8" cx="99.111" cy="105.264" r="2.811"/>
			</g>
		</g>
		<g>
			<g>
				<circle class="st8" cx="61.94" cy="112.189" r="2.811"/>
			</g>
		</g>
		<g>
			<g>
				<circle class="st8" cx="36.199" cy="110.738" r="2.811"/>
			</g>
		</g>
		<g>
			<g>
				<circle class="st8" cx="20.961" cy="97.866" r="2.811"/>
			</g>
		</g>
		<g>
			<g>
				<circle class="st8" cx="20.327" cy="86.918" r="2.811"/>
			</g>
		</g>
		<g>
			<g>
				<circle class="st8" cx="8.196" cy="85.291" r="2.811"/>
			</g>
		</g>
		<g>
			<g>
				<circle class="st8" cx="9.527" cy="55.998" r="2.811"/>
			</g>
		</g>
		<g>
			<g>
				<circle class="st8" cx="98.52" cy="68.573" r="2.811"/>
			</g>
		</g>
		<g>
			<g>
				<circle class="st8" cx="13.711" cy="34.545" r="2.811"/>
			</g>
		</g>
		<g>
			<g>
				<polygon class="st8" points="27.697,17.114 27.697,30.107 28.83,30.107 28.83,18.247 61.339,18.247 61.339,17.114 				"/>
			</g>
		</g>
		<g>
			<g>
				<polygon class="st8" points="93.662,23.893 93.662,36.346 82.689,36.346 82.689,37.479 94.796,37.479 94.796,23.893 				"/>
			</g>
		</g>
		<g>
			<g>
				<polygon class="st8" points="71.175,8.532 71.175,29.811 72.308,29.811 72.308,9.665 93.342,9.665 93.342,8.532 				"/>
			</g>
		</g>
		<g>
			<g>
				<polygon class="st8" points="88.015,49.365 88.015,50.498 97.805,50.498 97.805,68.869 98.938,68.869 98.938,49.365 				"/>
			</g>
		</g>
		<g>
			<g>
				<polygon class="st8" points="74.675,104.697 74.675,82.184 73.542,82.184 73.542,105.83 99.259,105.83 99.259,104.697 				"/>
			</g>
		</g>
		<g>
			<g>
				<rect x="61.375" y="86.475" class="st8" width="1.133" height="26.335"/>
			</g>
		</g>
		<g>
			<g>
				<polygon class="st8" points="52.202,80.704 52.202,110.098 35.607,110.098 35.607,111.231 53.335,111.231 53.335,80.704 				"/>
			</g>
		</g>
		<g>
			<g>
				<polygon class="st8" points="44.045,78.041 44.045,97.062 20.813,97.062 20.813,98.195 45.178,98.195 45.178,78.041 				"/>
			</g>
		</g>
		<g>
			<g>
				<polygon class="st8" points="19.761,74.291 19.761,86.918 20.894,86.918 20.894,75.425 40.046,75.425 40.046,74.291 				"/>
			</g>
		</g>
		<g>
			<g>
				<polygon class="st8" points="7.516,68.477 7.516,85.411 8.649,85.411 8.649,69.61 36.049,69.61 36.049,68.477 				"/>
			</g>
		</g>
		<g>
			<g>
				<rect x="9.273" y="55.283" class="st8" width="23.967" height="1.133"/>
			</g>
		</g>
		<g>
			<g>
				<polygon class="st8" points="14.278,41.968 14.278,33.657 13.145,33.657 13.145,43.101 37.382,43.101 37.382,41.968 				"/>
			</g>
		</g>
		<g>
			<g>
				<polygon class="st8" points="87.424,45.518 87.424,46.651 106.09,46.651 106.09,66.798 107.223,66.798 107.223,45.518 				"/>
			</g>
		</g>
		<g>
			<g>
				<polygon class="st8" points="84.169,72.149 84.169,73.282 102.835,73.282 102.835,89.877 103.968,89.877 103.968,72.149 				"/>
			</g>
		</g>
		<g>
			<g>
				<polygon class="st8" points="24.363,8.088 24.363,9.221 41.107,9.221 41.107,39.501 42.24,39.501 42.24,8.088 				"/>
			</g>
		</g>
	</g>
	<g>
		<g>
			<g>
				<circle class="st19" cx="56.828" cy="57.22" r="27.907"/>
			</g>
		</g>
		<g>
			<g>
				<circle class="st0" cx="56.828" cy="57.22" r="25.837"/>
			</g>
		</g>
		<g>
			<g>
				<g>
					<path class="st13" d="M62.89,56.992c1.287-0.444,4.128-1.465,4.128-7.236c0-5.898-3.365-7.452-7.038-7.852v-4.522
						c0-1-0.81-1.81-1.81-1.81h-3.054c-0.999,0-1.81,0.81-1.81,1.81v4.384h-0.716c-1.509,0-3.107,0-4.128,1.154
						c-0.933,0.977-0.933,2.264-0.977,4.394v20.464c0,1.731,0.044,3.107,1.065,4.172c1.065,1.11,2.53,1.154,3.996,1.154h0.76v3.952
						c0,0.999,0.81,1.81,1.81,1.81h3.054c0.999,0,1.81-0.81,1.81-1.81v-4.052c3.618-0.312,7.659-1.71,7.659-8.511
						C67.639,58.146,64.4,57.348,62.89,56.992z M54.856,47.848h1.332c1.464,0.045,3.24,0.089,3.24,3.063
						c0,3.107-1.82,3.152-3.24,3.152h-1.332V47.848z M56.542,66.891h-1.686v-6.969h1.642c1.42,0,3.462,0.044,3.462,3.551
						C59.96,66.847,57.963,66.891,56.542,66.891z"/>
				</g>
			</g>
		</g>
		<g>
			<g>
				<g>
					<path class="st8" d="M62.89,55.057c1.287-0.444,4.128-1.465,4.128-7.235c0-5.898-3.365-7.452-7.038-7.852v-4.522
						c0-1-0.81-1.81-1.81-1.81h-3.054c-0.999,0-1.81,0.81-1.81,1.81v4.384h-0.716c-1.509,0-3.107,0-4.128,1.154
						c-0.933,0.977-0.933,2.264-0.977,4.394v20.464c0,1.731,0.044,3.107,1.065,4.172c1.065,1.11,2.53,1.154,3.996,1.154h0.76v3.952
						c0,0.999,0.81,1.81,1.81,1.81h3.054c0.999,0,1.81-0.81,1.81-1.81V71.07c3.618-0.312,7.659-1.71,7.659-8.511
						C67.639,56.211,64.4,55.412,62.89,55.057z M54.856,45.913h1.332c1.464,0.045,3.24,0.089,3.24,3.063
						c0,3.107-1.82,3.152-3.24,3.152h-1.332V45.913z M56.542,64.956h-1.686v-6.969h1.642c1.42,0,3.462,0.044,3.462,3.551
						C59.96,64.912,57.963,64.956,56.542,64.956z"/>
				</g>
			</g>
		</g>
	</g>
</g>
</svg>
